<svg xmlns="http://www.w3.org/2000/svg" xmlns:xlink="http://www.w3.org/1999/xlink" width="412" height="427" viewBox="0 0 412 427">
  <defs>
    <linearGradient id="linear-gradient" x1="0.5" x2="0.5" y2="1" gradientUnits="objectBoundingBox">
      <stop offset="0" stop-color="#13293d"/>
      <stop offset="0.33" stop-color="#13293d"/>
      <stop offset="1" stop-color="#02192d"/>
    </linearGradient>
    <filter id="Path_6" x="-15" y="-10" width="442" height="444" filterUnits="userSpaceOnUse">
      <feOffset dy="5" input="SourceAlpha"/>
      <feGaussianBlur stdDeviation="5" result="blur"/>
      <feFlood flood-opacity="0.302"/>
      <feComposite operator="in" in2="blur"/>
      <feComposite in="SourceGraphic"/>
    </filter>
    <linearGradient id="linear-gradient-2" x1="0.5" x2="0.5" y2="1" gradientUnits="objectBoundingBox">
      <stop offset="0" stop-color="#338bc1"/>
      <stop offset="0.573" stop-color="#4a9da2"/>
      <stop offset="1" stop-color="#69b578"/>
    </linearGradient>
    <filter id="Union_1" x="79.785" y="41.721" width="252.429" height="340.559" filterUnits="userSpaceOnUse">
      <feOffset dy="5" input="SourceAlpha"/>
      <feGaussianBlur stdDeviation="5" result="blur-2"/>
      <feFlood flood-opacity="0.302"/>
      <feComposite operator="in" in2="blur-2"/>
      <feComposite in="SourceGraphic"/>
    </filter>
    <clipPath id="clip-fmp-macOSIcon_3">
      <rect width="412" height="427"/>
    </clipPath>
  </defs>
  <g id="fmp-macOSIcon_3" data-name="fmp-macOSIcon – 3" clip-path="url(#clip-fmp-macOSIcon_3)">
    <g transform="matrix(1, 0, 0, 1, 0, 0)" filter="url(#Path_6)">
      <path id="Path_6-2" data-name="Path 6" d="M92,0H320a92,92,0,0,1,92,92V322a92,92,0,0,1-92,92H92A92,92,0,0,1,0,322V92A92,92,0,0,1,92,0Z" fill="url(#linear-gradient)"/>
    </g>
    <g id="Group_12" data-name="Group 12" transform="translate(134.829 51.721) rotate(8)" style="isolation: isolate">
      <g transform="matrix(0.99, -0.14, 0.14, 0.99, -140.72, -32.45)" filter="url(#Union_1)">
        <g id="Union_1-2" data-name="Union 1" transform="translate(134.83 51.72) rotate(8)" fill="url(#linear-gradient-2)">
          <path d="M0,229.522c0-32.145,27.658-58.2,61.775-58.2a65.065,65.065,0,0,1,21,3.45V5.257A5,5,0,0,1,86.421.443,4.982,4.982,0,0,1,88.481,0h90.7a5,5,0,0,1,5,5V87.841a5,5,0,0,1-5,5H123.485V226.815c.044.9.066,1.8.066,2.707,0,32.146-27.658,58.2-61.775,58.2S0,261.668,0,229.522Z" stroke="none"/>
          <path d="M 61.77511215209961 281.7264099121094 C 92.52961730957031 281.7264099121094 117.5501937866211 258.3074645996094 117.5501937866211 229.5216217041016 C 117.5501937866211 228.7126617431641 117.530403137207 227.9059143066406 117.484489440918 226.8148651123047 L 117.484489440918 86.84128570556641 L 178.1778259277344 86.84128570556641 L 178.1778259277344 6.002398014068604 L 88.776611328125 6.21699047088623 L 88.776611328125 183.1494903564453 L 80.84232330322266 180.4473724365234 C 74.74452972412109 178.3706665039062 68.32940673828125 177.3177032470703 61.77511215209961 177.3177032470703 C 31.0206127166748 177.3177032470703 5.999988555908203 200.7362823486328 5.999988555908203 229.5216217041016 C 5.999988555908203 258.3074645996094 31.0206127166748 281.7264099121094 61.77511215209961 281.7264099121094 M 61.77511215209961 287.7264099121094 C 27.65790557861328 287.7264099121094 -1.133219393523177e-05 261.6678161621094 -1.133219393523177e-05 229.5216217041016 C -1.133219393523177e-05 197.3763275146484 27.65790557861328 171.3177032470703 61.77511215209961 171.3177032470703 C 69.14869689941406 171.3177032470703 76.22044372558594 172.534912109375 82.776611328125 174.7677001953125 L 82.776611328125 5.256913185119629 C 82.776611328125 2.965579986572266 84.31844329833984 1.033788323402405 86.42111206054688 0.4426632821559906 C 87.04915618896484 0.1583299487829208 87.74652862548828 -3.377278517291415e-06 88.48081970214844 -3.377278517291415e-06 L 179.1783294677734 -3.377278517291415e-06 C 181.9394836425781 -3.377278517291415e-06 184.1778259277344 2.238288402557373 184.1778259277344 5.000413417816162 L 184.1778259277344 87.84091186523438 C 184.1778259277344 90.60299682617188 181.9394836425781 92.84128570556641 179.1783294677734 92.84128570556641 L 123.484489440918 92.84128570556641 L 123.484489440918 226.8148651123047 C 123.5280303955078 227.7112121582031 123.5501937866211 228.6151580810547 123.5501937866211 229.5216217041016 C 123.5501937866211 261.6678161621094 95.89231872558594 287.7264099121094 61.77511215209961 287.7264099121094 Z" stroke="none" fill="rgba(255,255,255,0.56)"/>
        </g>
      </g>
    </g>
  </g>
</svg>
