<svg xmlns="http://www.w3.org/2000/svg" xmlns:xlink="http://www.w3.org/1999/xlink" width="350" height="350" viewBox="0 0 350 350">
  <defs>
    <linearGradient id="linear-gradient" x1="0.5" y1="-0.629" x2="0.5" y2="1" gradientUnits="objectBoundingBox">
      <stop offset="0" stop-color="#d0433c"/>
      <stop offset="1" stop-color="#d03c7f"/>
    </linearGradient>
    <linearGradient id="linear-gradient-2" x1="0.012" y1="0.5" x2="1.502" y2="0.5" xlink:href="#linear-gradient"/>
    <clipPath id="clip-condownloader">
      <rect width="350" height="350"/>
    </clipPath>
  </defs>
  <g id="condownloader" clip-path="url(#clip-condownloader)">
    <g id="Union_17" data-name="Union 17" transform="translate(14.086 147.432)" fill="url(#linear-gradient)">
      <path d="M112.017,131.962H20a20,20,0,0,1-20-20V76.522a20,20,0,0,1,20-20h92.017V0l94.241,94.242-94.241,94.241Z" stroke="none"/>
      <path d="M 122.016716003418 164.3403625488281 L 192.1154022216797 94.24167633056641 L 122.016716003418 24.14231109619141 L 122.016716003418 66.52088928222656 L 19.99979019165039 66.52088928222656 C 14.48589611053467 66.52088928222656 10.00000381469727 71.00717926025391 10.00000381469727 76.5216064453125 L 10.00000381469727 111.9608917236328 C 10.00000381469727 117.4753189086914 14.48589611053467 121.9616088867188 19.99979019165039 121.9616088867188 L 122.016716003418 121.9616088867188 L 122.016716003418 164.3403625488281 M 112.016716003418 188.4824981689453 L 112.016716003418 131.9616088867188 L 19.99979019165039 131.9616088867188 C 8.954111099243164 131.9616088867188 3.662109293145477e-06 123.0066070556641 3.662109293145477e-06 111.9608917236328 L 3.662109293145477e-06 76.5216064453125 C 3.662109293145477e-06 65.47589111328125 8.954111099243164 56.52089309692383 19.99979019165039 56.52089309692383 L 112.016716003418 56.52089309692383 L 112.016716003418 -9.155273232863692e-07 L 206.2575073242188 94.24171447753906 L 112.016716003418 188.4824981689453 Z" stroke="none" fill="rgba(255,255,255,0.65)"/>
    </g>
    <g id="Union_18" data-name="Union 18" transform="translate(335.914 14.086) rotate(90)" fill="url(#linear-gradient-2)">
      <path d="M112.017,131.962H20a20,20,0,0,1-20-20V76.522a20,20,0,0,1,20-20h92.017V0l94.241,94.242-94.241,94.241Z" stroke="none"/>
      <path d="M 122.016716003418 164.3403625488281 L 192.1154022216797 94.24167633056641 L 122.016716003418 24.14231109619141 L 122.016716003418 66.52182006835938 L 19.99979019165039 66.52182006835938 C 14.48589611053467 66.52182006835938 10.00000381469727 71.00771331787109 10.00000381469727 76.5216064453125 L 10.00000381469727 111.961784362793 C 10.00000381469727 117.475715637207 14.48589611053467 121.9616088867188 19.99979019165039 121.9616088867188 L 122.016716003418 121.9616088867188 L 122.016716003418 164.3403625488281 M 112.016716003418 188.4824981689453 L 112.016716003418 131.9616088867188 L 19.99979019165039 131.9616088867188 C 8.954111099243164 131.9616088867188 3.662109293145477e-06 123.0074996948242 3.662109293145477e-06 111.961784362793 L 3.662109293145477e-06 76.5216064453125 C 3.662109293145477e-06 65.47589111328125 8.954111099243164 56.52182006835938 19.99979019165039 56.52182006835938 L 112.016716003418 56.52182006835938 L 112.016716003418 -9.155273232863692e-07 L 206.2575073242188 94.24171447753906 L 112.016716003418 188.4824981689453 Z" stroke="none" fill="rgba(255,255,255,0.65)"/>
    </g>
  </g>
</svg>
