<svg xmlns="http://www.w3.org/2000/svg" xmlns:xlink="http://www.w3.org/1999/xlink" width="350" height="350" viewBox="0 0 350 350">
  <defs>
    <linearGradient id="linear-gradient" x1="0.5" x2="0.5" y2="1" gradientUnits="objectBoundingBox">
      <stop offset="0" stop-color="#338bc1"/>
      <stop offset="1" stop-color="#69b578"/>
    </linearGradient>
    <clipPath id="clip-newfmp">
      <rect width="350" height="350"/>
    </clipPath>
  </defs>
  <g id="newfmp" clip-path="url(#clip-newfmp)">
    <g id="Union_10" data-name="Union 10" transform="translate(5636.799 1128.547) rotate(8)" fill="url(#linear-gradient)">
      <path d="M-5648.45-91.738a68.5,68.5,0,0,1,68.5-68.5,68.843,68.843,0,0,1,13.3,1.291v-156.84a30,30,0,0,1,30-30h4q.7,0,1.4.046.937-.058,1.887-.059h65a30,30,0,0,1,30,30v40a30,30,0,0,1-30,30h-47.283V-96.992c.131,1.733.2,3.487.2,5.253a68.5,68.5,0,0,1-68.5,68.5A68.5,68.5,0,0,1-5648.45-91.738Z" stroke="none"/>
      <path d="M -5579.9501953125 -33.2382926940918 C -5547.693359375 -33.2382926940918 -5521.4501953125 -59.48129272460938 -5521.4501953125 -91.73828887939453 C -5521.4501953125 -93.25054168701172 -5521.5078125 -94.75228881835938 -5521.64892578125 -96.99159240722656 L -5521.64892578125 -255.8002471923828 L -5464.36572265625 -255.8002471923828 C -5453.33740234375 -255.8002471923828 -5444.365234375 -264.7722778320312 -5444.365234375 -275.8003845214844 L -5444.365234375 -315.8000793457031 C -5444.365234375 -326.8281860351562 -5453.33740234375 -335.8002014160156 -5464.36572265625 -335.8002014160156 L -5529.36572265625 -335.8002014160156 L -5532.01025390625 -335.7454833984375 L -5532.6484375 -335.7874450683594 L -5536.64892578125 -335.7874450683594 C -5547.67626953125 -335.7874450683594 -5556.64794921875 -326.8154296875 -5556.64794921875 -315.787353515625 L -5556.64794921875 -146.7875366210938 L -5568.5791015625 -149.1356353759766 C -5572.296875 -149.8673400878906 -5576.12255859375 -150.2383422851562 -5579.9501953125 -150.2383422851562 C -5612.20703125 -150.2383422851562 -5638.4501953125 -123.9953384399414 -5638.4501953125 -91.73828887939453 C -5638.4501953125 -59.48129272460938 -5612.20703125 -33.2382926940918 -5579.9501953125 -33.2382926940918 M -5579.9501953125 -23.23829078674316 C -5617.78125 -23.23829078674316 -5648.4501953125 -53.90608978271484 -5648.4501953125 -91.73828887939453 C -5648.4501953125 -129.569091796875 -5617.78125 -160.2383422851562 -5579.9501953125 -160.2383422851562 C -5575.39892578125 -160.2383422851562 -5570.95068359375 -159.7942352294922 -5566.64794921875 -158.9474487304688 L -5566.64794921875 -315.787353515625 C -5566.64794921875 -332.3559265136719 -5553.21630859375 -345.7874450683594 -5536.64892578125 -345.7874450683594 L -5532.6484375 -345.7874450683594 C -5532.17919921875 -345.7874450683594 -5531.71435546875 -345.7720031738281 -5531.2529296875 -345.7416381835938 C -5530.62841796875 -345.7804565429688 -5529.99951171875 -345.8002014160156 -5529.36572265625 -345.8002014160156 L -5464.36572265625 -345.8002014160156 C -5447.796875 -345.8002014160156 -5434.365234375 -332.3686828613281 -5434.365234375 -315.8000793457031 L -5434.365234375 -275.8003845214844 C -5434.365234375 -259.2317810058594 -5447.796875 -245.8002471923828 -5464.36572265625 -245.8002471923828 L -5511.64892578125 -245.8002471923828 L -5511.64892578125 -96.99159240722656 C -5511.517578125 -95.25884246826172 -5511.4501953125 -93.50469207763672 -5511.4501953125 -91.73828887939453 C -5511.4501953125 -53.90608978271484 -5542.1181640625 -23.23829078674316 -5579.9501953125 -23.23829078674316 Z" stroke="none" fill="rgba(255,255,255,0.65)"/>
    </g>
  </g>
</svg>
